<?xml version="1.0" standalone="no"?>
<!DOCTYPE svg PUBLIC "-//W3C//DTD SVG 20010904//EN"
 "http://www.w3.org/TR/2001/REC-SVG-20010904/DTD/svg10.dtd">
<svg version="1.0" xmlns="http://www.w3.org/2000/svg"
 width="500.000000pt" height="500.000000pt" viewBox="0 0 500.000000 500.000000"
 preserveAspectRatio="xMidYMid meet">
<metadata>
Created by potrace 1.14, written by Peter Selinger 2001-2017
</metadata>
<g transform="translate(0.000000,500.000000) scale(0.100000,-0.100000)"
fill="#000000" stroke="none">
<path d="M2300 4960 c-1041 -75 -1932 -821 -2198 -1840 -57 -216 -75 -369 -75
-620 0 -251 18 -404 75 -620 249 -958 1037 -1667 2023 -1821 200 -31 530 -31
730 0 1082 169 1903 990 2076 2076 32 201 32 530 0 730 -174 1086 -994 1907
-2071 2074 -144 23 -407 33 -560 21z"/>
</g>
</svg>
